# xmcd
# Copyright (C) 1995-1998 Ti Kan
#
# Track frame offsets:
#       150
#       16365
#       36989
#
# Disc length: 692 seconds
#
# Revision: 0
# Processed by: cddbd v1.5.2PL0 Copyright (c) Steve Scherf et al.
# Submitted via: CD-Import v1.0
#
DISCID=1d02b203
DTITLE=Eko Fresh - 
DYEAR=12
DGENRE=
TTITLE0=Es Muss Sein
TTITLE1=Ruin
TTITLE2=Sun
EXTD=
EXTT0=
EXTT1=
EXTT2=
PLAYORDER=
